<svg width="24" height="25" viewBox="0 0 24 25" fill="none" xmlns="http://www.w3.org/2000/svg">
<path d="M20.9655 8.09682L14.652 13.8364C13.948 14.4747 12.9943 14.8332 12 14.8332C11.0057 14.8332 10.052 14.4747 9.348 13.8364L3.0345 8.09682C3.024 8.20455 3 8.30205 3 8.40909V16.5909C3.00119 17.4947 3.39666 18.3612 4.09966 19.0003C4.80267 19.6394 5.7558 19.9989 6.75 20H17.25C18.2442 19.9989 19.1973 19.6394 19.9003 19.0003C20.6033 18.3612 20.9988 17.4947 21 16.5909V8.40909C21 8.30205 20.976 8.20455 20.9655 8.09682Z" fill="#434343"/>
<path d="M13.5915 12.8723L20.442 6.64386C20.1101 6.14363 19.6421 5.72957 19.083 5.44163C18.5239 5.1537 17.8926 5.0016 17.25 5H6.75C6.10742 5.0016 5.47613 5.1537 4.91702 5.44163C4.35791 5.72957 3.88986 6.14363 3.558 6.64386L10.4085 12.8723C10.8312 13.255 11.4034 13.4699 12 13.4699C12.5966 13.4699 13.1688 13.255 13.5915 12.8723Z" fill="#434343"/>
</svg>
