<svg width="18" height="19" viewBox="0 0 18 19" fill="none" xmlns="http://www.w3.org/2000/svg">
<path d="M10 5.50024C12.103 5.50024 13 6.39724 13 8.50024H15C15 5.27524 13.225 3.50024 10 3.50024V5.50024ZM13.422 10.9432C13.2299 10.7686 12.9774 10.6754 12.7178 10.6835C12.4583 10.6915 12.212 10.8001 12.031 10.9862L9.63801 13.4472C9.06201 13.3372 7.90401 12.9762 6.71201 11.7872C5.52001 10.5942 5.15901 9.43324 5.05201 8.86124L7.51101 6.46724C7.69742 6.28637 7.80614 6.04006 7.81417 5.78045C7.82219 5.52083 7.72889 5.26828 7.55401 5.07624L3.85901 1.01324C3.68405 0.820596 3.44089 0.703743 3.18116 0.687499C2.92143 0.671254 2.66561 0.756897 2.46801 0.926239L0.298008 2.78724C0.125119 2.96075 0.0219269 3.19169 0.0080073 3.43624C-0.0069927 3.68624 -0.292993 9.60824 4.29901 14.2022C8.30501 18.2072 13.323 18.5002 14.705 18.5002C14.907 18.5002 15.031 18.4942 15.064 18.4922C15.3085 18.4786 15.5393 18.3749 15.712 18.2012L17.572 16.0302C17.7415 15.8328 17.8273 15.577 17.8112 15.3173C17.7952 15.0576 17.6785 14.8143 17.486 14.6392L13.422 10.9432Z" fill="#434343"/>
</svg>
